<svg xmlns="http://www.w3.org/2000/svg"  viewBox="0 0 48 48" width="48px" height="48px"><path fill="#ffe082" d="M47.102,14.948L32.963,9.739c-0.434-0.16-0.92,0.007-1.165,0.398l-3.792,6.068l-3.792-6.068	c-0.245-0.392-0.731-0.558-1.165-0.398L8.911,14.948c-0.581,0.214-0.818,0.908-0.49,1.433l3.577,5.723L8.42,27.826	c-0.328,0.525-0.091,1.219,0.49,1.432l3.087,1.137v8.883c0,0.817,0.51,1.548,1.277,1.831l14.058,5.179	c0.435,0.16,0.914,0.16,1.349,0l14.058-5.179c0.767-0.283,1.277-1.013,1.277-1.831V22.103l3.577-5.723	C47.92,15.855,47.682,15.162,47.102,14.948z"/><line x1="24" x2="24" y1="43" y2="32.447" fill="none" stroke="#18193f" stroke-linecap="round" stroke-linejoin="round" stroke-miterlimit="10" stroke-width="3"/><line x1="19.474" x2="24" y1="22.333" y2="24" fill="none" stroke="#18193f" stroke-linecap="round" stroke-linejoin="round" stroke-miterlimit="10" stroke-width="3"/><path fill="none" stroke="#18193f" stroke-linecap="round" stroke-linejoin="round" stroke-miterlimit="10" stroke-width="3" d="M24,24	l16.409-6.045V35.56c0,0.838-0.522,1.587-1.309,1.877l-14.409,5.309c-0.446,0.164-0.937,0.164-1.383,0L8.899,37.437	c-0.786-0.29-1.309-1.039-1.309-1.877v-4.198"/><polyline fill="none" stroke="#18193f" stroke-linecap="round" stroke-linejoin="round" stroke-miterlimit="10" stroke-width="3" points="7.591,17.955 24,11.909 32.11,14.897"/><path fill="none" stroke="#18193f" stroke-linecap="round" stroke-linejoin="round" stroke-miterlimit="10" stroke-width="3" d="M7.591,17.955l-3.666-5.866c-0.336-0.538-0.093-1.249,0.502-1.468l14.492-5.339c0.444-0.164,0.943,0.007,1.194,0.408L24,11.909"/><path fill="none" stroke="#18193f" stroke-linecap="round" stroke-linejoin="round" stroke-miterlimit="10" stroke-width="3" d="M40.409,17.955l3.666-5.866c0.336-0.538,0.093-1.249-0.502-1.468L29.081,5.281c-0.444-0.164-0.943,0.007-1.194,0.408L24,11.909"/><path fill="none" stroke="#18193f" stroke-linecap="round" stroke-linejoin="round" stroke-miterlimit="10" stroke-width="3" d="M12.338,19.703l-4.747-1.749l-3.666,5.866c-0.336,0.538-0.093,1.249,0.502,1.468l14.492,5.339c0.444,0.164,0.943-0.007,1.194-0.408	L24,24l-5.013-1.847"/><path fill="none" stroke="#18193f" stroke-linecap="round" stroke-linejoin="round" stroke-miterlimit="10" stroke-width="3" d="M24,24	l4.137-6.619c0.118-0.188,0.294-0.332,0.502-0.408l15.02-5.632"/></svg>