<svg xmlns="http://www.w3.org/2000/svg"  viewBox="0 0 64 64" width="512px" height="512px"><g data-name="Fill Outline"><g data-name="Stroke copy"><circle cx="50.5" cy="17.5" r="6.5" fill="#f89c8d"/><path fill="#f8664f" d="M57,17.5a6.5,6.5,0,1,1-7.97-6.33A6.508,6.508,0,0,0,55.5,17a6.431,6.431,0,0,0,1.47-.17C56.99,17.05,57,17.28,57,17.5Z"/><path fill="#a1d51c" d="M48,8a2.978,2.978,0,0,0-4.368-2.656,3.986,3.986,0,0,0-7.264,0,2.978,2.978,0,0,0-4.024,4.024A3.972,3.972,0,0,0,31.379,16a3.991,3.991,0,1,0,5.911,5.269,2.989,2.989,0,0,0,5.52-2.288c.064,0,.125.019.19.019a2.988,2.988,0,0,0,2.221-5,2.95,2.95,0,0,0,.559-3.115A2.994,2.994,0,0,0,48,8Z"/><path fill="#7ab92d" d="M46,16a3,3,0,0,1-3,3c-.06,0-.13-.02-.19-.02A2.887,2.887,0,0,1,43,20a3,3,0,0,1-5.71,1.27A3.993,3.993,0,1,1,31.38,16a3.971,3.971,0,0,1,.96-6.63,2.986,2.986,0,0,1,4.03-4.03,3.944,3.944,0,0,1,1.35-1.62A3.959,3.959,0,0,0,38.38,9a3.991,3.991,0,1,0,5.91,5.27,3.012,3.012,0,0,0,1.7,1.55A1.087,1.087,0,0,1,46,16Z"/><path fill="#fcbc04" d="M31.929,22.59l-10.392,6-11-19.053A4,4,0,0,1,12,4.073h0A8,8,0,0,1,22.929,7Z"/><path fill="#e59730" d="M31.93,22.59l-10.39,6-11-19.05A4,4,0,0,1,12,4.07a6.245,6.245,0,0,1,.68-.35l2.86,4.94a7.983,7.983,0,0,0,10.24,3.28Z"/><polygon fill="#f7f754" points="41 21 35 17 29 21 23 17 17 21 11 17 11 61 47 61 47 17 41 21"/><path fill="#f9e109" d="M47,50V61H11V17l6,4,6-4v9A24.006,24.006,0,0,0,47,50Z"/><polygon fill="#fcbc04" points="47 17 53 21 59 17 59 61 47 61 47 17"/><polygon fill="#e59730" points="59 17 59 61 53 61 53 21 59 17"/><polygon fill="#f9e109" points="53 55 47 61 53 61 59 61 53 55"/><path fill="#84d2f4" d="M14,35.172V30H8v5.172A6.826,6.826,0,0,1,6,40H6a6.826,6.826,0,0,0-2,4.828V61H18V44.828A6.826,6.826,0,0,0,16,40h0A6.826,6.826,0,0,1,14,35.172Z"/><path fill="#57b7eb" d="M18,48.1V61H4V44.83A6.835,6.835,0,0,1,6,40a6.835,6.835,0,0,0,2-4.83V30h6v2.01a3.163,3.163,0,0,0-3,3.16A6.835,6.835,0,0,1,9,40a6.835,6.835,0,0,0-2,4.83,11.161,11.161,0,0,0,7.33,10.49A10.548,10.548,0,0,1,14,53,5,5,0,0,1,18,48.1Z"/><rect width="8" height="4" x="7" y="26" fill="#d0d8da"/><rect width="14" height="7" x="4" y="47" fill="#d0d8da"/><path fill="#93999a" d="M10.27,52.73A10.317,10.317,0,0,0,11.8,54H4V47H7.22A11.086,11.086,0,0,0,10.27,52.73Z"/><path fill="#93999a" d="M18,48.1V54H14.08A7.565,7.565,0,0,1,14,53,5,5,0,0,1,18,48.1Z"/><path fill="#93999a" d="M15,28v2H7V26H9.54A3.98,3.98,0,0,0,13,28Z"/><path fill="#f89c8d" d="M27,47a4.956,4.956,0,0,0-3,1.023A4.977,4.977,0,0,0,16,52c0,2.761,2.239,9,5,9a4.956,4.956,0,0,0,3-1.023A4.956,4.956,0,0,0,27,61c2.761,0,5-6.239,5-9A5,5,0,0,0,27,47Z"/><path fill="#f8664f" d="M31.2,55.93C30.3,58.48,28.76,61,27,61a4.98,4.98,0,0,1-3-1.02A4.98,4.98,0,0,1,21,61c-2.76,0-5-6.24-5-9a5,5,0,0,1,4.06-4.91A10,10,0,0,0,30,56,9.438,9.438,0,0,0,31.2,55.93Z"/><path fill="#a1d51c" d="M27,44H24a4,4,0,0,1,4-4h3A4,4,0,0,1,27,44Z"/><path fill="#7ab92d" d="M30.46,42a4.225,4.225,0,0,1-.63.83A4.025,4.025,0,0,1,27,44H24a4.025,4.025,0,0,1,1.17-2.83,3.081,3.081,0,0,1,.44-.37A2.964,2.964,0,0,0,28,42Z"/></g><g data-name="Outline copy"><path fill="#464a51" d="M59,52a1,1,0,0,0,1-1V17a1,1,0,0,0-1.555-.832l-.518.345a7.477,7.477,0,0,0-2.1-4.282,5.13,5.13,0,0,1,.734-.162l.571-.078a1,1,0,1,0-.27-1.982l-.572.078a7.17,7.17,0,0,0-2.354.755,7.363,7.363,0,0,0-5.736-.468A3.959,3.959,0,0,0,49,8a4,4,0,0,0-4-4,3.814,3.814,0,0,0-.927.114,4.981,4.981,0,0,0-8.146,0A3.82,3.82,0,0,0,35,4a4,4,0,0,0-4,4,3.814,3.814,0,0,0,.114.927A4.96,4.96,0,0,0,30.018,16a5.083,5.083,0,0,0-.389.607L24.8,8.234h0L23.8,6.5A9,9,0,0,0,11.5,3.207a5.006,5.006,0,0,0-1.83,6.83l1.143,1.979a1,1,0,0,0,1.732-1L11.4,9.037a3,3,0,0,1,1.1-4.1A7,7,0,0,1,22.062,7.5l.5.865-3.463,2a1,1,0,0,0,1,1.733l3.464-2,1.5,2.6-3.464,2a1,1,0,0,0,.293,1.84L17.445,19.5l-3.068-5.313a1,1,0,1,0-1.733,1l1.6,2.773-2.691-1.794A1,1,0,0,0,10,17v5a1,1,0,0,0,2,0V18.869l4.445,2.963a1,1,0,0,0,1.11,0L23,18.2l5.445,3.63a1,1,0,0,0,1.11,0L35,18.2l5.445,3.63a1,1,0,0,0,1.11,0L46,18.868V60H33a1,1,0,0,0,0,2H59a1,1,0,0,0,1-1V55a1,1,0,0,0-2,0v3.586l-4-4V49a1,1,0,0,0-2,0v5.586l-4,4V18.868l4,2.667V34a1,1,0,0,0,2,0V21.535l4-2.666V51A1,1,0,0,0,59,52ZM52.092,12.237a7.216,7.216,0,0,0-.949,1.248,1,1,0,1,0,1.714,1.03,5.156,5.156,0,0,1,1.1-1.289A5.489,5.489,0,0,1,56,17.5c0,.107-.017.209-.024.314L53,19.8l-5.445-3.63A1,1,0,0,0,47,16h0a3.949,3.949,0,0,0-.546-2,4.077,4.077,0,0,0,.225-.448,5.476,5.476,0,0,1,5.413-1.315ZM23.555,16.168a.982.982,0,0,0-.282-.128l2.79-1.61,3.054,5.29L29,19.8ZM41,19.8l-4.065-2.71A10.377,10.377,0,0,1,42.2,12.4a1,1,0,1,0-.744-1.858,12.363,12.363,0,0,0-3.179,1.88,11.639,11.639,0,0,0-.307-3.663,1,1,0,1,0-1.94.486,9.624,9.624,0,0,1-.806,6.79.993.993,0,0,0-.779.135l-3.382,2.255a2.981,2.981,0,0,1,.975-1.671,1,1,0,0,0,0-1.5A2.959,2.959,0,0,1,31,13a3.007,3.007,0,0,1,1.76-2.723,1,1,0,0,0,.473-1.368A1.966,1.966,0,0,1,33,8a2,2,0,0,1,2.909-1.767,1,1,0,0,0,1.368-.473,2.986,2.986,0,0,1,5.446,0,1,1,0,0,0,.583.53,1.012,1.012,0,0,0,.785-.057,1.989,1.989,0,1,1,1.428,3.686,1,1,0,0,0-.667,1.337A2,2,0,0,1,45,12a1.974,1.974,0,0,1-.522,1.331,1,1,0,0,0,0,1.338A1.987,1.987,0,0,1,43.029,18c-.026,0-.132-.015-.157-.016a.991.991,0,0,0-1.022,1.249ZM53,56.414,56.586,60H49.414Z"/><path fill="#464a51" d="M53,39a1,1,0,0,0-1,1v4a1,1,0,0,0,2,0V40A1,1,0,0,0,53,39Z"/><path fill="#464a51" d="M32.052,51.459a1,1,0,0,0-1.071.925C30.757,55.46,28.622,60,27,60a3.958,3.958,0,0,1-2.4-.82,1,1,0,0,0-1.206,0A3.958,3.958,0,0,1,21,60c-1.8,0-4-5.356-4-8a4,4,0,0,1,4-4,3.958,3.958,0,0,1,2.4.82,1,1,0,0,0,1.206,0,4,4,0,0,1,5.355.515A1,1,0,0,0,31.445,48,6,6,0,0,0,27,46a5.848,5.848,0,0,0-2.105.4A7.805,7.805,0,0,0,24.54,45H27a5.006,5.006,0,0,0,5-5,1,1,0,0,0-1-1H28a4.993,4.993,0,0,0-4.8,3.667,7.711,7.711,0,0,0-1.648-1.5,1,1,0,1,0-1.11,1.664,5.714,5.714,0,0,1,2.4,3.478A5.84,5.84,0,0,0,21,46a6,6,0,0,0-1,.09V44.829a7.778,7.778,0,0,0-2.293-5.536A5.789,5.789,0,0,1,16,35.171V31a1,1,0,0,0,1-1V26a1,1,0,0,0-1-1H7a1,1,0,0,0-1,1v4a1,1,0,0,0,1,1v4.171a5.789,5.789,0,0,1-1.707,4.122A7.778,7.778,0,0,0,3,44.829V61a1,1,0,0,0,1,1H15a1,1,0,0,0,0-2H5V55H15.473c.855,3.194,2.825,7,5.527,7a5.893,5.893,0,0,0,3-.821A5.89,5.89,0,0,0,27,62c3.42,0,5.742-6.256,5.977-9.47A1,1,0,0,0,32.052,51.459ZM28,41h1.829A3.006,3.006,0,0,1,27,43H25.171A3.006,3.006,0,0,1,28,41ZM8,27h7v2H8ZM5,53V48h9a1,1,0,0,0,0-2H5V44.829a5.789,5.789,0,0,1,1.707-4.122A7.778,7.778,0,0,0,9,35.171V31h5v4.171a7.774,7.774,0,0,0,2.293,5.536A5.789,5.789,0,0,1,18,44.829v1.983A6,6,0,0,0,15,52a8.407,8.407,0,0,0,.074,1Z"/><path fill="#464a51" d="M41,27H32a1,1,0,0,0,0,2h9a1,1,0,0,0,0-2Z"/><path fill="#464a51" d="M41,32H35a1,1,0,0,0,0,2h6a1,1,0,0,0,0-2Z"/></g></g></svg>